<?xml version="1.0" encoding="UTF-8"?>
<!-- Do not edit this file with editors other than draw.io -->
<!DOCTYPE svg PUBLIC "-//W3C//DTD SVG 1.1//EN" "http://www.w3.org/Graphics/SVG/1.1/DTD/svg11.dtd">
<svg xmlns="http://www.w3.org/2000/svg" xmlns:xlink="http://www.w3.org/1999/xlink" version="1.1" width="730px" height="586px" viewBox="-0.5 -0.5 730 586" content="&lt;mxfile host=&quot;app.diagrams.net&quot; agent=&quot;Mozilla/5.0 (Macintosh; Intel Mac OS X 10_15_7) AppleWebKit/537.36 (KHTML, like Gecko) Chrome/130.0.0.0 Safari/537.36&quot; version=&quot;24.8.6&quot; scale=&quot;4&quot; border=&quot;5&quot;&gt;&#10;  &lt;diagram name=&quot;ページ1&quot; id=&quot;BuzNXhM9A7gVoE0rke3k&quot;&gt;&#10;    &lt;mxGraphModel dx=&quot;984&quot; dy=&quot;625&quot; grid=&quot;0&quot; gridSize=&quot;10&quot; guides=&quot;1&quot; tooltips=&quot;1&quot; connect=&quot;1&quot; arrows=&quot;1&quot; fold=&quot;1&quot; page=&quot;1&quot; pageScale=&quot;1&quot; pageWidth=&quot;827&quot; pageHeight=&quot;1169&quot; math=&quot;0&quot; shadow=&quot;0&quot;&gt;&#10;      &lt;root&gt;&#10;        &lt;mxCell id=&quot;0&quot; /&gt;&#10;        &lt;mxCell id=&quot;1&quot; parent=&quot;0&quot; /&gt;&#10;        &lt;mxCell id=&quot;fTASUE9V1QiAkkwn8HOi-7&quot; value=&quot;&quot; style=&quot;sketch=0;pointerEvents=1;shadow=1;dashed=0;html=1;strokeColor=none;fillColor=#000000;labelPosition=center;verticalLabelPosition=bottom;verticalAlign=top;outlineConnect=0;align=center;shape=mxgraph.office.concepts.service_application;&quot; vertex=&quot;1&quot; parent=&quot;1&quot;&gt;&#10;          &lt;mxGeometry x=&quot;301&quot; y=&quot;151&quot; width=&quot;170&quot; height=&quot;133&quot; as=&quot;geometry&quot; /&gt;&#10;        &lt;/mxCell&gt;&#10;        &lt;mxCell id=&quot;fTASUE9V1QiAkkwn8HOi-8&quot; value=&quot;&quot; style=&quot;sketch=0;aspect=fixed;pointerEvents=1;shadow=0;dashed=0;html=1;strokeColor=none;labelPosition=center;verticalLabelPosition=bottom;verticalAlign=top;align=center;fillColor=#0000CC;shape=mxgraph.mscae.general.graph&quot; vertex=&quot;1&quot; parent=&quot;1&quot;&gt;&#10;          &lt;mxGeometry x=&quot;325&quot; y=&quot;189&quot; width=&quot;50&quot; height=&quot;50&quot; as=&quot;geometry&quot; /&gt;&#10;        &lt;/mxCell&gt;&#10;      &lt;/root&gt;&#10;    &lt;/mxGraphModel&gt;&#10;  &lt;/diagram&gt;&#10;&lt;/mxfile&gt;&#10;"><defs/><g><g data-cell-id="0"><g data-cell-id="1"><g data-cell-id="fTASUE9V1QiAkkwn8HOi-7"><g style="filter: drop-shadow(rgba(0, 0, 0, 0.25) 8px 12px 8px);"><rect x="20" y="20" width="680" height="532" fill="none" stroke="none" pointer-events="all"/><path d="M 442.18 388.15 C 442.18 441.07 487.48 474 531.52 474 C 579.44 474 619.13 434.66 619.13 388.92 C 619.13 339.97 576.35 303.18 531.74 303.18 C 488.05 303.18 442.18 335 442.18 388.15 Z M 403.75 366.38 L 368.75 352.46 C 363.72 349.7 361.54 345.83 363.6 340.19 L 376.87 309.48 C 379.85 304.84 383.62 302.19 389.57 304.4 L 422.28 320.31 C 432.69 308.37 444.01 296.66 456.71 286.28 L 442.41 252.47 C 441.38 248.49 440.93 244.51 446.99 240.76 L 479.81 227.39 C 485.99 225.51 489.65 228.05 491.71 231.58 L 506.35 266.28 C 521.11 263.52 535.75 262.19 552.9 266.94 L 567.66 231.81 C 570.98 226.94 575.1 225.62 580.01 227.39 L 612.73 240.76 C 618.1 243.96 618.67 247.94 617.3 252.02 L 602.78 286.72 C 615.47 296.55 627.25 307.16 636.86 318.98 L 671.98 305.17 C 678.27 303.51 682.04 305.83 684.33 310.36 L 698.06 341.85 C 698.97 346.49 697.94 350.36 693.14 353.01 L 657.45 366.93 C 659.17 380.41 658.94 397.43 657.45 412.34 L 693.14 426.26 C 697.94 429.14 700 432.89 698.51 437.76 L 685.59 467.26 C 683.07 471.12 679.53 473 674.38 471.79 L 638.35 457.75 C 628.74 470.24 616.96 481.4 603.69 491.01 L 617.87 524.93 C 620.16 530.34 617.3 534.98 613.87 536.64 L 579.33 550.56 C 574.64 551.34 570.41 551.01 568.46 545.37 L 553.82 510.68 C 540.67 514.32 524.2 515.21 507.38 511.01 L 492.97 545.26 C 490.68 548.91 487.94 552 481.53 550.45 L 447.79 536.86 C 442.98 533.66 440.93 529.57 443.9 524.05 L 459.91 493.22 C 445.73 482.83 433.95 471.79 424.57 460.18 L 390.25 473.77 C 384.76 475.76 380.42 474.44 377.21 469.58 L 363.49 437.76 C 362 433.56 363.15 428.7 368.18 426.26 L 403.87 411.35 C 402.49 396.32 402.38 381.41 403.75 366.38 Z M 577.61 69.83 L 603.35 69.83 L 603.35 44.97 L 577.61 44.97 Z M 526.03 69.83 L 551.76 69.83 L 551.76 44.97 L 526.03 44.97 Z M 474.67 69.83 L 500.4 69.83 L 500.4 44.97 L 474.67 44.97 Z M 350.68 467.59 L 55.12 467.59 C 35.78 467.81 21.03 453.33 20 436.43 L 20 52.7 C 21.03 30.72 39.33 20 54.31 20.11 L 595.57 20.11 C 614.44 20.11 629.31 36.35 629.08 52.7 L 629.08 221.53 C 625.99 218.55 612.84 213.91 603.46 210.04 L 603.46 102.98 L 45.74 102.98 L 45.74 434.55 C 45.96 439.63 48.71 442.51 54.2 442.73 L 340.15 442.73 C 343.36 451.01 347.13 459.3 350.68 467.59 Z" fill="#000000" stroke="none" pointer-events="all"/></g></g><g data-cell-id="fTASUE9V1QiAkkwn8HOi-8"><g><rect x="116" y="172" width="200" height="200" fill="none" stroke="none" pointer-events="all"/><path d="M 116 372 L 116 172 L 124.03 172 L 124.03 363.8 L 316 363.8 L 316 372 Z M 132.47 306.63 L 132.47 265.85 L 147.12 244.75 L 198.53 258.89 L 264.8 180.4 L 316 192.08 L 316 276.71 L 262.18 244.34 L 206.96 315.03 L 165.4 277.53 Z M 165.4 297.2 L 211.78 338.6 L 268.21 266.26 L 316 294.13 L 316 355.4 L 132.47 355.4 L 132.47 325.89 Z" fill="#0000cc" stroke="none" pointer-events="all"/></g></g></g></g></g></svg>