<?xml version="1.0" encoding="UTF-8"?>
<!-- Do not edit this file with editors other than draw.io -->
<!DOCTYPE svg PUBLIC "-//W3C//DTD SVG 1.1//EN" "http://www.w3.org/Graphics/SVG/1.1/DTD/svg11.dtd">
<svg xmlns="http://www.w3.org/2000/svg" xmlns:xlink="http://www.w3.org/1999/xlink" version="1.1" width="554px" height="430px" viewBox="-0.5 -0.5 554 430" content="&lt;mxfile host=&quot;app.diagrams.net&quot; agent=&quot;Mozilla/5.0 (Macintosh; Intel Mac OS X 10_15_7) AppleWebKit/537.36 (KHTML, like Gecko) Chrome/130.0.0.0 Safari/537.36&quot; version=&quot;24.8.6&quot; scale=&quot;4&quot; border=&quot;5&quot;&gt;&#10;  &lt;diagram name=&quot;ページ1&quot; id=&quot;BuzNXhM9A7gVoE0rke3k&quot;&gt;&#10;    &lt;mxGraphModel dx=&quot;984&quot; dy=&quot;625&quot; grid=&quot;0&quot; gridSize=&quot;10&quot; guides=&quot;1&quot; tooltips=&quot;1&quot; connect=&quot;1&quot; arrows=&quot;1&quot; fold=&quot;1&quot; page=&quot;1&quot; pageScale=&quot;1&quot; pageWidth=&quot;827&quot; pageHeight=&quot;1169&quot; math=&quot;0&quot; shadow=&quot;0&quot;&gt;&#10;      &lt;root&gt;&#10;        &lt;mxCell id=&quot;0&quot; /&gt;&#10;        &lt;mxCell id=&quot;1&quot; parent=&quot;0&quot; /&gt;&#10;        &lt;mxCell id=&quot;fTASUE9V1QiAkkwn8HOi-2&quot; value=&quot;&quot; style=&quot;sketch=0;pointerEvents=1;shadow=0;dashed=0;html=1;strokeColor=none;fillColor=#0000CC;labelPosition=center;verticalLabelPosition=bottom;verticalAlign=top;outlineConnect=0;align=center;shape=mxgraph.office.concepts.contacts;&quot; vertex=&quot;1&quot; parent=&quot;1&quot;&gt;&#10;          &lt;mxGeometry x=&quot;338&quot; y=&quot;233&quot; width=&quot;71&quot; height=&quot;47&quot; as=&quot;geometry&quot; /&gt;&#10;        &lt;/mxCell&gt;&#10;        &lt;mxCell id=&quot;fTASUE9V1QiAkkwn8HOi-5&quot; value=&quot;&quot; style=&quot;sketch=0;pointerEvents=1;shadow=1;dashed=0;html=1;strokeColor=none;fillColor=#000000;labelPosition=center;verticalLabelPosition=bottom;verticalAlign=top;outlineConnect=0;align=center;shape=mxgraph.office.concepts.application_generic;&quot; vertex=&quot;1&quot; parent=&quot;1&quot;&gt;&#10;          &lt;mxGeometry x=&quot;310.5&quot; y=&quot;203&quot; width=&quot;126&quot; height=&quot;94&quot; as=&quot;geometry&quot; /&gt;&#10;        &lt;/mxCell&gt;&#10;      &lt;/root&gt;&#10;    &lt;/mxGraphModel&gt;&#10;  &lt;/diagram&gt;&#10;&lt;/mxfile&gt;&#10;"><defs/><g><g data-cell-id="0"><g data-cell-id="1"><g data-cell-id="fTASUE9V1QiAkkwn8HOi-2"><g><rect x="128" y="140" width="284" height="188" fill="none" stroke="none" pointer-events="all"/><path d="M 292 208.74 L 292 197.89 L 372 197.89 L 372 208.74 Z M 292 241.28 L 292 230.43 L 372 230.43 L 372 241.28 Z M 292 273.77 L 292 262.97 L 372 262.97 L 372 273.77 Z M 222.24 231.83 C 208.05 231.83 195.57 220.26 195.57 205.8 C 195.57 191.15 207.2 179.05 222.24 179.05 C 237.6 179.05 248.37 192.35 248.37 205.37 C 248.37 222 234.24 231.83 222.24 231.83 Z M 167.57 288.23 C 168.59 277.29 169.81 262.87 172.91 251.45 C 174.67 245.67 177.33 242.92 180.75 240.75 L 190.35 235.54 C 193.07 234.29 195.68 232.65 199.04 234.53 C 210.29 242.53 226.77 247.11 244.43 234.67 C 246.83 233.08 248.8 233.61 250.67 234.53 L 261.97 240.27 C 266.24 242.53 268.59 245.76 269.97 249.47 C 272.91 256.46 274.72 275.46 275.57 288.23 Z M 140 317.15 L 400 317.15 L 400 150.85 L 140 150.85 Z M 128 328 L 128 140 L 412 140 L 412 328 Z" fill="#0000cc" stroke="none" pointer-events="all"/></g></g><g data-cell-id="fTASUE9V1QiAkkwn8HOi-5"><g style="filter: drop-shadow(rgba(0, 0, 0, 0.25) 8px 12px 8px);"><rect x="18" y="20" width="504" height="376" fill="none" stroke="none" pointer-events="all"/><path d="M 394.32 61.86 L 415.52 61.86 L 415.52 41.07 L 394.32 41.07 Z M 436.82 61.86 L 458.11 61.86 L 458.11 41.07 L 436.82 41.07 Z M 479.41 61.86 L 500.7 61.86 L 500.7 41.07 L 479.41 41.07 Z M 493.42 375.02 C 498.81 375.02 500.7 371.5 500.7 367.88 L 500.7 89.71 L 39.3 89.71 L 39.3 367.41 C 39.39 371.4 40.81 374.47 46.21 375.02 Z M 18 368.25 L 18 46.45 C 18 34.85 28.41 20 47.81 20 L 493.04 20 C 509.51 20 522 32.9 522 47.38 L 522 367.32 C 522 381.24 511.68 396 493.04 396 L 45.54 395.91 C 30.78 395.91 18 383.1 18 368.25 Z" fill="#000000" stroke="none" pointer-events="all"/></g></g></g></g></g></svg>